<?xml version="1.0"?>
<svg xmlns="http://www.w3.org/2000/svg" xmlns:xlink="http://www.w3.org/1999/xlink" version="1.1" id="Capa_1" x="0px" y="0px" viewBox="0 0 512 512" style="enable-background:new 0 0 512 512;" xml:space="preserve" width="512px" height="512px"><g><g>
	<g>
		<path d="M481.091,425.394c-26.771,26.771-60.016,44.707-96.2,52.375c3.719-7.808,5.806-16.544,5.806-25.769v-92    c0-82.843-67.157-150-150-150l-80-210h-30v51l-60,20v20l-61,20v20l50,40h51v220l-70,110v11h60l75-111l75,51    c-33.137,0-60,26.863-60,60H344.43c29.469,0,58.215-5.718,85.44-16.995c27.226-11.277,51.596-27.561,72.433-48.398    L481.091,425.394z" data-original="#000000" class="active-path" data-old_color="#000000" fill="#E3E9ED"/>
	</g>
</g></g> </svg>
