<?xml version="1.0" encoding="iso-8859-1"?>
<!-- Generator: Adobe Illustrator 19.0.0, SVG Export Plug-In . SVG Version: 6.00 Build 0)  -->
<svg version="1.1" id="Capa_1" xmlns="http://www.w3.org/2000/svg" xmlns:xlink="http://www.w3.org/1999/xlink" x="0px" y="0px"
	 viewBox="0 0 512 512" style="enable-background:new 0 0 512 512;" xml:space="preserve">
<g>
	<path style="fill:#884637;" d="M100.708,244.528c-12.052,28.58-26.028,59.516-24.372,91.888c0.508,9.917,2.376,18.06,8.792,25.213
		c5.512,6.146,13.207,9.268,18.857,15.005c7.681,7.801,5.735,19.139,4.582,28.877c-1.935,16.343-4.696,31.181-3.919,47.82
		c0.341,7.307-0.729,18.488,4.815,24.006c5.542,5.516,17.532,5.707,25.027,6.428c7.916,0.76,21.885,4.268,28.511-1.82
		c7.132-6.552,4.647-19.642,4.329-27.9c-0.519-13.432-7.003-35.082,0.364-47.576c10.051-17.046,49.118-3.084,63.882-3.592
		c13.274-0.457,25.891-2.121,39.052-3.67c13.114-1.543,43.505-4.9,45.695,12.787c2.168,17.515-0.741,35.871,0.705,53.475
		c1.076,13.097,0.497,21.841,15.468,21.898c13.513,0.051,42.497,3.437,52.055-9.244c4.601-6.104,1.671-23.756,0.719-30.818
		c-3.753-27.836,0.163-48.577,10.21-74.106c8.529-21.669,19.993-47.954,13.985-71.752c-1.833-7.262-6.838-20.155-14.343-23.302
		c-5.902-2.475-13.445-2.252-19.814-4.963c-19.422-8.263-35.194-21.545-53.251-31.896c-8.997-5.157-17.44-10.749-26.345-16.097
		c-3.661-2.199-14.462-11.793-18.802-11.513c-1.205,0.077-4.183,3.407-5.645,4.152c-4.633,2.363-10.724,3.411-15.833,4.335
		c-13.7,2.477-27.914-0.555-41.721-0.557c-17.322-0.003-33.905-2.898-51.065-3.59c-19.162-0.772-46.689-2.258-60.219-17.692
		c-10.703-12.21-13.767-29.146-15.211-44.806c-1.522-16.508-4.108-32.879-5.767-49.437c-1.735-17.317-2.323-31.616,4.042-48.356
		c2.182-5.737,7.483-10.847,8.625-16.822c3.448-18.047-8.193-22.5-19.657-10.934c-7.997,8.069-15.268,19.168-19.664,29.685
		c-3.881,9.286-8.613,18.495-9.389,28.669c-5.238-3.871-10.575-26.129-20.935-16.885c-6.414,5.723,3.082,28.149,4.528,35.51
		c-0.154-0.785-9.327-3.834-10.494-3.963c-4.388-0.487-7.896,0.232-9.887,4.84c-3.646,8.435,7.113,20.973,11.143,27.838
		c8.666,14.764,0.958,10.409-8.572,15.217c-6.432,3.246-6.689,12.266-4.352,18.677c3.19,8.749,13.534,6.691,21.395,11.239
		c12.023,6.957,6.488,7.863-1.122,15.688c-5.408,5.56-9.912,13.823-3.035,20.498c5.389,5.229,9.708,1.656,16.105,1.111
		c17.91-1.526,1.787,16.11,15.903,17.926c5.955,0.766,12.708-6.22,18.121-3.056c2.841,1.661,2.827,6.63,6.313,8.589
		C87.417,245.428,97.973,238.935,100.708,244.528z"/>
	<path style="fill:#884637;" d="M445.961,108.245c6.763,15.094,25.05,15.382,38.248,22.528
		c13.103,7.096,21.246,13.778,22.697,28.796c1.352,13.991-2.66,27.113-6.847,40.207c-3.118,9.751-7.53,32.242-16.113,38.376
		c-8.986,6.422-9.064-7.028-15.048-9.593c-9.432-4.043-15.118,11.951-24.51,8.303c-6.851-2.661-7.875-11.738-15.565-10.094
		c-4.748,1.015-5.224,7.047-10.816,3.861c-2.584-1.471-2.729-8.072-6.409-9.345c-8.97-3.101-13.897,14.531-21.522,18.12
		c-7.458,3.51-11.257-4.205-17.284-8.665c-10.545-7.802-22.259-14.726-33.331-21.83c-8.574-5.501-31.167-13.586-34.649-23.804
		c-4.779-14.026,8.806-25.477,1.151-40.504c-1.694-3.326-4.957-6.008-7.548-8.598c-5.188-5.186-12.814-10.339-16.832-16.469
		c-4.657-7.107-2.682-18.802-1.076-26.691c1.841-9.041,7.181-21.357,14.847-26.697c13.812-9.618,30.094-9.848,46.234-11.285
		c13.31-1.185,26.707-0.397,39.983,1.36c14.699,1.946,31.789,5.677,43.471,15.044C437.652,81.376,439.639,94.136,445.961,108.245z"
		/>
</g>
<g>
	<path style="fill:#72352A;" d="M98.559,246.679c-9.133,11.342-12.175,31.16-15.203,45.128c-2.75,12.686-5.21,25.771-5.211,38.735
		c-0.001,9.521,1.373,16.404,6.824,24.303c4.464,6.467,9.945,9.545,15.2,15.062c7.112,7.466,7.583,16.036,7.023,26.165
		c-0.956,17.307-5.115,34.307-5.765,51.652c-0.405,10.791,0.574,33.709,15.159,33.26c27.494-0.846,23.449-36.806,24.757-55.416
		c1.572-22.377,1.148-44.905-3.909-66.887c-3.91-16.991-11.934-32.454-11.726-50.275
		C125.839,297.181,128.891,221.552,98.559,246.679z"/>
	<path style="fill:#72352A;" d="M167.524,411.818c-1.024,2.408-1.616,4.858-1.627,6.983c-0.068,13.752,1.066,28.51,2.881,42.219
		c1.729,13.063,4.767,10.26,16.098,9.146c12.658-1.244,13.076,0.214,14.13-13.842c0.766-10.21,2.49-20.355,2.004-30.676
		c-0.269-5.704,1.184-14.035,0-19.389c-1.306-5.903-4.803-5.921-9.78-6.17c-3.177-0.159-9.302-0.354-12.514,0.393
		C173.981,401.583,169.741,406.603,167.524,411.818z"/>
	<path style="fill:#72352A;" d="M293.401,402.122c0.415,12.992-2.146,25.957-2.149,39.046c-0.001,6.883-1.311,17.891,1.976,24.026
		c4.213,7.865,16.375,9.316,22.074,1.693c9.229-12.346,3.953-34.734,2.598-48.542c-0.62-6.324,1.23-11.269-3.367-15.776
		C307.583,395.758,301.605,400.412,293.401,402.122z"/>
	<path style="fill:#72352A;" d="M347.126,489.515c7.161-16.619,5.197-44.854,1.798-63.78c-2.151-11.975-2.497-22.483-10.947-31.705
		c-5.641-6.155-13.948-14.632-22.975-14.915c-12.933-0.405-15.531,8.525-8.69,16.559c4.533,5.322,8.582,10.817,10.377,17.607
		c2.34,8.851,0.322,18.516,0.351,27.581c0.032,9.964,0.092,19.695,0,29.651c-0.069,7.42-0.363,11.725,6.43,15.98
		C330.286,490.761,343.823,492.201,347.126,489.515z"/>
	<path style="fill:#72352A;" d="M96.41,244.528c0.003-8.098,0.438-16.663-2.992-24.212c-5.087-11.196-16.583-7.615-23.071-16.668
		c-8.005-11.169-1.011-23.544-4.414-35.382c-3.318-11.544-18.313-15.737-17.529-29.215c0.66-11.361,8.059-17.808,4.884-30.191
		c-3.841-14.985,1.908-19.778,7.626-33.291c5.517-13.036,15.765-29.254,16.365-43.66c0.439-10.526-6.154-3.534-10.509,2.115
		C53.909,50.708,44.908,71.279,44.832,92.452c-0.762-6.764-9.038-29.37-18.278-19.779c-8.975,9.314,6.511,27.553,5.241,38.561
		c-5.285-3.956-14.164-12.878-18.493-4.448c-5.547,10.8,7.299,30.813,10.702,40.944c-5.759,1.949-16.376,5.28-18.187,11.771
		c-1.804,6.467,4.29,10.572,8.553,14.468c4.928,4.501,13.382,5.907,17.565,10.911c5.46,6.531-0.324,7.428-4.291,12.52
		c-4.763,6.113-8.093,15.395,1.789,18.164c4.947,1.388,12.315-3.714,15.973,1.764c2.751,4.12-1.783,10.201,2.401,14.376
		c4.342,4.331,10.9,1.329,15.651,0.112c6.871-1.762,6.865-2.221,10.746,3.463C78.611,241.731,84.324,246.156,96.41,244.528z"/>
	<path style="fill:#72352A;" d="M383.659,86.937c-5.809,4.667-6.893,17.388-8.596,24.34c-4.183,17.075-8.221,34.422-3.996,51.985
		c7.442,30.935,36.95,38.853,62.848,47.931c8.697,3.049,36.327,2.176,29.97,17.578c-4.034,9.771-14.631,7.414-22.917,3.598
		c-4.055-1.868-5.719-5.934-9.14-7.934c-4.23-2.473-10.475-1.265-15.395-0.537c-2.861,0.424-5.213,1.935-8.006,0.904
		c-1.942-0.717-1.125-4.298-3.265-4.677c-5.912-1.046-7.914,8.463-11.099,11.069c-11.142,9.116-32.482-5.779-42.996-10.687
		c-15.326-7.153-29.297-15.702-42.641-26.139c-14.715-11.51-2.195-22.813,1.649-35.339c2.408-7.848-3.085-9.201-8.059-14.641
		c-4.648-5.084-8.126-11.526-11.064-17.711c-7.771-16.359-11.229-33.211-5.25-51.079c3.508-10.483,26.13-21.715,36.187-13.771
		c6.775,5.354,0.634,16.158-0.856,22.651c-2.941,12.815-2.27,28.454,6.726,38.897c4.45,5.166,15.08,10.311,22.084,9.44
		c9.053-1.126,12.552-11.558,15.956-18.54C370.59,104.452,376.705,95.356,383.659,86.937z"/>
</g>
<path style="fill:#4D4B49;" d="M486.811,135.647c-17.101,9.763-6.913,33.235,11.461,30.8
	C519.09,163.687,505.166,130.267,486.811,135.647z"/>
<path style="fill:#FFC94E;" d="M295.55,187.222c-3.274,5.581-12.934,16.93-11.493,23.998c1.295,6.35,14.947,14.42,19.462,18.605
	c12.072,11.192,25.819,17.359,39.866,25.625c10.114,5.951,21.25,12.176,32.272,16.158c4.625,1.671,11.445,4.15,15.861,2.98
	c8.256-2.184,14.151-11.697,13.628-20.088c-0.585-9.374-7.269-11.849-15.562-14.986c-11.091-4.197-19.327-9.677-29.407-15.777
	c-11.664-7.059-22.458-15.439-34.024-22.729C319.745,196.97,305.533,183.165,295.55,187.222z"/>
<path style="fill:#F49D34;" d="M329.218,207.28c-6.329,5.893-4.078,19.553,3.547,24.931c10.546,7.438,22.603,13.069,34.501,18.015
	c5.979,2.484,24.427,7.457,26.992,14.185c3.231,8.474-7.013,7.491-12.43,6.464c-10.146-1.924-20.162-2.953-28.815-8.957
	c-9.124-6.33-19.261-11.042-28.988-16.691c-10.864-6.308-20.244-12.815-29.867-20.75c-4.143-3.416-12.377-7.205-12.27-13.614
	c0.071-4.259,8.783-18.571,12.231-20.612C305.714,183.39,314.792,200.679,329.218,207.28z"/>
<path d="M470.89,235.166c0.06,0.034,0.121,0.06,0.185,0.075c-0.033-0.039-0.065-0.076-0.097-0.115
	C470.948,235.14,470.92,235.153,470.89,235.166z"/>
<path d="M511.687,159.672c-1.034-11.659-4.656-22.731-15.64-28.335c-11.004-5.611-24.241-6.755-34.448-13.986
	c-11.032-7.818-9.4-24.16-14.67-35.496c-6.807-14.643-24.989-21.678-39.813-24.894c-9.867-2.141-20.181-3.415-30.499-3.649
	c-14.975-3.49-30.39-2.713-45.763-1.387c-13.394,1.156-28.04,2.931-39.409,10.742c-25.182,17.299-16.372,55.93-0.03,76.236
	c2.369,2.944,4.946,5.605,7.865,8.008c3.15,2.592,5.338,5.308,7.916,8.318c-1.057,5.385-5.325,10.878-7.576,15.338
	c-1.798,3.563-3.338,7.534-3.58,11.518c-4.379,2.523-7.5,7.141-10.103,11.383c-2.623,4.273-4.992,9.377-5.479,14.536
	c-33.376,6.685-66.838,8.026-100.615,3.514c-8.895-1.188-17.811-2.38-26.789-2.686c-8.304-0.282-16.776,0.419-24.956-1.366
	c-16.486-3.602-22.812-16.625-28.149-31.211c-11.967-32.706-19.831-69.74-11.769-104.309c1.98-8.489,4.466-17.133,7.89-25.162
	c2.443-5.73,6.092-11.522,6.273-17.93c0.335-11.859-10.694-15.406-20.112-11.273c-11.037,4.844-18.569,13.365-24.398,23.646
	C51.562,52.291,46.862,64.456,43.31,76.819c-4.568-8.895-11.146-16.877-19.974-12.024c-7.458,4.099-6.009,14.638-5.045,21.665
	c0.528,3.852,1.125,7.734,2.321,11.442c0.389,1.202,0.841,2.406,1.307,3.614c-6.677-3.374-13.74-3.945-16.624,4.96
	C1.23,119.025,9.49,133.062,17.4,144.064c-9.497,2.338-18.313,9.016-17.324,19.463c0.799,8.438,8.019,13.85,14.826,17.775
	c1.351,0.779,9.455,4.479,13.678,5.98c-0.46,0.604-0.904,1.27-1.237,1.634c-1.901,2.081-3.899,4.07-5.701,6.241
	c-3.97,4.783-7.668,10.738-5.978,17.231c3.318,12.749,16.012,10.726,26.586,9.407c-1.124,4.459-2.432,8.447,1.245,13.373
	c4.741,6.35,11.833,6.977,18.907,4.728c2.09-0.665,5.585-2.789,7.687-1.697c2.178,1.132,3.633,4.988,5.389,6.745
	c5.095,5.093,11.188,4.547,17.392,5.117c-2.08,6-5.329,11.771-7.17,17.796c-2.784,9.112-4.889,18.349-6.702,27.696
	c-2.959,15.262-7.413,30.99-5.573,46.666c0.843,7.18,3.012,13.918,7.526,19.643c4.375,5.548,10.15,9.64,15.11,14.611
	c11.713,11.742,6.283,29.583,4.308,44.227c-1.885,13.973-5.826,28.999-3.886,43.106c2.099,15.262,13.271,21.278,27.446,23.265
	c12.773,1.789,27.719,6.211,40.287,1.559c6.032-2.233,9.403-6.613,11.21-11.854c5.546,2.9,15.224,0.916,20.351-0.421
	c7.797-2.032,12.76-6.361,11.352-14.955c-1.962-11.98-3.978-23.657-4.917-35.796c-0.47-6.068,0.143-12.459-0.14-18.561
	c2.397,0.292,4.792,0.598,7.179,0.914c19.638,2.615,38.797,4.646,58.604,2.613c6.796-0.699,13.571-1.625,20.364-2.355
	c-1.489,5.653-0.915,13.041-1.099,17.573c-0.394,9.687,0,19.36-0.29,29.034c-0.218,7.277,0.639,14.476,7.225,18.83
	c4.734,3.131,10.561,3.926,16.031,2.871c1.762,7.725,5.954,14.055,15.157,17.078c5.737,1.885,12.084,2.057,18.068,2.177
	c6.25,0.126,12.557,0.462,18.805,0.198c13.375-0.566,25.071-5.344,30.023-18.608c6.033-16.158,2.228-34.288-0.526-50.712
	c-1.405-8.375-2.928-16.946-1.332-25.409c1.514-8.024,5.175-15.343,8.709-22.628c7.938-16.361,14.948-33.298,16.435-51.611
	c1.061-13.076-0.271-27.666-4.39-40.141c-1.792-5.43-4.279-10.783-8.462-14.777c2.691-3.416,4.79-7.399,6.412-11.182
	c4.29-10.004-0.382-18.287-8.078-22.609c0.624-0.973,1.132-2.099,1.49-3.408c0.074-0.271,0.109-0.545,0.127-0.819
	c1.267-2.066,3.416-5.533,5.451-5.657c1.781-0.108,4.345,3.334,5.801,4.223c3.333,2.031,7.193,2.551,10.993,1.939
	c1.647-0.265,3.276-0.711,4.893-1.115c0.065-0.016,0.811,0.063,1.33,0.061c0.02,0.022,0.038,0.043,0.058,0.066
	c2.099,2.586,3.945,5.15,6.812,6.995c5.353,3.44,11.525,2.849,17.289,0.729c3.795-1.396,7.25-3.591,11.034-4.989
	c1.413-0.521,3.29-0.597,4.706-1.157c-0.241-0.138-0.438-0.437-0.5-1.023c0.028,0.261,0.292,0.63,0.588,0.983
	c0.128-0.053,0.259-0.104,0.378-0.166c1.685-0.889,0.569,0.475-0.281,0.281c0.274,0.318,0.556,0.617,0.69,0.797
	c3.129,4.205,6.872,9.309,12.83,8.197c6.28-1.172,11.042-8.102,13.771-13.377c3.354-6.482,5.128-13.603,6.77-20.668
	C508.958,193.741,513.196,176.692,511.687,159.672z M292.125,201.709c1.544-3.907,3.768-7.398,5.954-10.917
	c3.918,6.541,12.193,9.038,18.356,12.963c7.567,4.821,14.956,10.021,22.287,15.195c10.468,7.387,20.786,15.199,32.585,20.382
	c4.221,1.854,10.813,4.006,16.897,4.203c1.084,0.621,2.188,1.218,3.357,1.762c2.558,1.191,6.006,2.247,7.628,4.778
	c3.117,4.863-3.492,13.738-6.959,17.189c-6.388,6.36-14.734,0.093-21.181-3.289c-9.334-4.898-18.424-10.25-27.567-15.491
	c-16.123-9.242-33.14-18.519-47.541-30.388c-2.276-1.875-5.268-4.334-5.781-7.435C289.676,207.728,291.064,204.392,292.125,201.709z
	 M196.817,465.028c-1.511,1.947-9.355,1.92-11.49,1.902c-2.676-0.023-5.441-1.044-8.062-1.023c0.115-2.742,0.039-5.491-0.114-8.112
	c-0.407-6.962-1.148-13.874-2.196-20.769c-1.243-8.181-3.745-18.197-1.3-26.356c1.627-5.433,6.154-5.463,11.112-5.212
	c3.456,0.174,6.91,0.471,10.36,0.817c-1.101,2.989-1.409,6.667-1.62,8.876c-0.757,7.931-0.404,16.121,0.228,24.037
	c0.404,5.053,0.989,10.092,1.745,15.105C195.848,456.733,198.142,463.321,196.817,465.028z M311.411,417.664
	c-0.242,5.147-0.602,10.288-0.948,15.429c-0.667,9.93-1.362,19.865-1.51,29.82c-0.01,0.689-0.012,1.376-0.008,2.061
	c-4.408,0.206-9.358,0.452-10.598-4.388c-0.664-2.591-0.178-5.562-0.238-8.216c-0.09-3.936-0.404-7.867-0.506-11.804
	c-0.196-7.579-0.029-15.171-0.274-22.745c-0.1-3.102,0.07-7.009-0.758-10.373c0.229-0.017,0.458-0.039,0.688-0.055
	c3.485-0.239,11.847-2.207,13.787,1.746C312.195,411.48,311.526,415.212,311.411,417.664z M403.721,313.192
	c1.027,16.598-2.694,32.402-9.301,47.584c-6.192,14.23-14.854,27.574-16.477,43.33c-1.649,16.018,4.087,32.082,5.081,48.009
	c0.485,7.782,0.417,16.513-3.209,23.628c-2.566,5.037-7.636,7.029-12.964,7.818c-5.887,0.873-11.957,0.393-17.878,0.279
	c-5.642-0.106-11.445,0.158-17.013-0.916c-4.701-0.905-8.638-2.695-10.231-7.498c-2.436-7.344-0.755-17.068-0.382-24.658
	c0.47-9.575,1.232-19.133,1.784-28.703c0.346-6.004,1.184-12.824-1.474-18.467c-5.713-12.129-22.658-8.398-33.115-7.027
	c-18.671,2.449-36.693,5.359-55.588,3.852c-16.316-1.301-32.487-4.354-48.806-5.533c-11.801-0.853-20.079,4.739-22.215,16.666
	c-2.652,14.801,2.077,30.129,3.07,44.929c0.373,5.55,1.157,12.097-0.87,17.434c-2.036,5.359-9.206,5.341-14.094,5.254
	c-6.705-0.12-13.272-1.433-19.897-2.313c-5.752-0.765-12.553-1.035-17.521-4.373c-10.935-7.351-4.561-28.943-2.964-39.412
	c2.096-13.748,5.458-28.639,4.417-42.569c-0.509-6.812-2.056-12.898-6.259-18.382c-3.953-5.155-9.287-8.915-13.961-13.361
	c-11.382-10.826-10.059-26.421-7.568-40.764c2.803-16.14,5.989-32.457,10.826-48.114c2.388-7.731,7.105-14.809,8.416-22.833
	c0.509-3.113-0.775-6.095-4.007-7.059c-6.068-1.809-14.879,0.809-19.132-4.51c-3.253-4.069-5.606-8.02-11.223-8.84
	c-5.62-0.822-9.798,3.064-15.063,3.205c-6.994,0.186-1.573-10.236-1.61-14.307c-0.028-2.986-2.567-5.746-5.652-5.652
	c-4.056,0.123-25.481,5.988-21.743-3.141c3.152-7.699,15.013-12.444,14.225-21.777c-0.422-4.996-4.814-7.014-8.982-8.615
	c-5.113-1.965-9.894-3.189-14.551-6.189c-4.206-2.709-9.781-7.607-4.724-12.242c3.7-3.391,9.624-4.322,14.429-3.885
	c3.82,0.348,7.081-4.957,4.657-8.117c-6.695-8.729-14.422-18.592-16.678-29.607c-0.282-1.377-1.045-5.03-0.148-6.506
	c-0.083,0.403,0.947,0.409,2.007,0.947c3.527,1.791,6.578,4.648,9.284,7.49c3.31,3.477,8.825,0.668,9.041-3.744
	c0.401-8.211-4.188-15.271-5.97-23.045c-1.117-4.872-2.958-11.746-1.598-16.624c0.372-1.331-0.299-1.595,1.249-0.198
	c1.876,1.693,3.179,3.995,4.392,6.176c2.363,4.25,4.114,8.756,5.911,13.262c1.684,4.223,8.65,5.418,9.821,0
	c4.964-22.965,11.578-55.653,36.098-65.734c1.024-0.421,4.157-1.923,5.306-1.303c-0.02-0.01,0.289,1.154,0.229,2.418
	c-0.145,3.075-2.08,6.482-3.28,9.244c-1.581,3.634-3.031,7.279-4.276,11.046c-5.285,15.985-8.679,32.48-8.873,49.354
	c-0.196,17.179,2.269,34.528,6.183,51.229c3.369,14.378,7.407,29.174,13.267,42.758c5.735,13.293,15.218,23.162,29.641,26.533
	c7.527,1.761,15.301,1.816,22.985,1.811c9.32-0.009,18.52,0.749,27.767,1.881c18.762,2.297,37.101,4.041,56.027,2.867
	c17.556-1.09,34.805-4.051,51.803-8.451c2.551,4.647,7.192,8.187,11.418,11.219c7.53,5.402,15.222,10.701,23.025,15.697
	c9.466,6.061,19.334,11.485,29.053,17.127c9.643,5.598,19.301,11.424,29.383,16.208c5.867,2.783,12.223,4.019,18.169,1.543
	c0.151,0.169,0.315,0.335,0.494,0.498C402.184,287.574,403.072,302.711,403.721,313.192z M495.899,201.043
	c-1.668,6.884-3.047,14.038-5.746,20.612c-1.449,3.53-3.348,6.726-5.897,9.568c-0.104,0.116-1.269,1.578-1.934,2.131
	c-0.671-0.588-1.324-1.195-1.95-1.832c-3.362-3.3-5.225-6.096-10.277-5.211c-7.313,1.281-13.65,5.896-20.959,6.933
	c-7.782,1.104-7.857-6.81-13.489-9.653c-3.474-1.754-6.944-1.183-10.604-0.67c-4.351,0.609-5.227-0.688-8.395-3.176
	c-10.839-8.514-20.703,1.593-25.478,11.701c-1.767,0.538-3.592,0.818-5.817,0.49c-5.633-0.834-11.039-3.563-15.976-6.258
	c-9.395-5.127-17.883-11.576-26.719-17.564c-7.163-4.854-14.126-10.035-21.398-14.725c-4.25-2.74-13.933-5.452-13.969-11.459
	c-0.041-6.973,5.542-13.986,7.075-20.885c1.174,0.494,2.415,0.821,3.737,0.86c2.013,0.061,3.859-0.579,5.638-1.434
	c0.976,2.38,1.918,4.772,3.701,6.715c3.156,3.44,7.784,4.769,12.353,4.232c10.059-1.182,16.504-11.268,20.954-19.354
	c5.866-10.658,10.535-21.826,12.909-33.799c1.141-5.756,1.132-11.543,4.736-16.417c3.494-4.724,7.599-8.169,8.556-14.265
	c0.483-3.076-2.982-5.717-5.514-3.21c-6.316,6.255-14.392,10.656-16.98,19.713c-1.38,4.829-1.632,9.977-2.65,14.894
	c-1.151,5.557-2.744,11.03-4.847,16.303c-3.03,7.596-6.964,16.434-12.685,22.395c-2.305,2.402-6.352,5.422-9.386,2.369
	c-2.171-2.184-2.783-6.77-4.206-9.472c-1.007-1.913-3.885-3.22-5.987-2.437c-1.375,0.514-3.964,2.248-5.388,2.248
	c-1.342,0-2.718-2.216-3.683-3.465c-2.418-3.128-4.468-5.622-7.599-8.094c-5.728-4.521-10.155-10.075-13.723-16.428
	c-6.979-12.427-11.31-29.607-4.267-42.949c6.731-12.75,24.466-15.57,37.382-17.264c11.118-1.457,22.49-2.447,33.836-2.727
	c13.01,2.125,26.08,3.846,38.994,6.635c12.239,2.642,29.938,7.205,36.25,19.211c5.779,10.99,3.784,24.661,11.458,34.897
	c7.308,9.747,19.412,12.262,30.629,14.819c0.707,0.162,1.426,0.322,2.15,0.485c-4.591,4.73-7.523,12.898-7.291,18.267
	c0.551,12.692,15.823,22.561,27.914,19.604C500.365,182.741,498.076,192.06,495.899,201.043z M481.496,153.716
	c-1.059-5.605,1.695-14.013,7.185-16.062c1.942,0.688,3.807,1.53,5.498,2.632c4.302,2.806,5.787,7.496,6.681,12.33
	c0.605,3.271,0.904,6.563,0.985,9.863C494.647,166.409,483.135,162.399,481.496,153.716z"/>
<path d="M417.919,109.939c-11.93-0.938-25.99,12.488-20.007,24.584c1.877,3.797,6.989,1.539,7.302-1.977
	c0.512-5.742,7.979-16.629,14.616-11.096c4.594,3.832,2.974,12.699,9.36,14.5c1.87,0.526,3.6-0.386,4.648-1.892
	c2.869-4.122-1.226-11.931-3.47-15.721C427.647,113.741,423.369,110.366,417.919,109.939z"/>
<g>
</g>
<g>
</g>
<g>
</g>
<g>
</g>
<g>
</g>
<g>
</g>
<g>
</g>
<g>
</g>
<g>
</g>
<g>
</g>
<g>
</g>
<g>
</g>
<g>
</g>
<g>
</g>
<g>
</g>
</svg>
